# xmcd CD database file
# Copyright (C) 1993-1998 Ti Kan
#
# Track frame offsets:
# 182
# 11430
# 20827
# 29430
# 39810
# 48492
# 56865
# 67362
# 75460
# 84312
#
# Disc length: 1269 seconds
# Revision: 0
# Processed by: cddbd v1.4b41PL1 Copyright (c) Steve Scherf et al.
# Submitted via: CDSpectrumPro v3.3.331
#
DISCID=7c04f30a
DTITLE=Roger Miller - Country Spotlight
DYEAR=1900
DGENRE=
TTITLE0=King of The Road
TTITLE1=Chug-A-Lug
TTITLE2=England Swings
TTITLE3=Kansas City Star
TTITLE4=You Can't Roller Skate In A Buffalo Herd
TTITLE5=Dang Me
TTITLE6=Engine Engine #9
TTITLE7=Do-Wacka-Do
TTITLE8=My Uncle Used To Love Me But She Died
TTITLE9=Husbands and Wives
EXTD=
EXTT0=
EXTT1=
EXTT2=
EXTT3=
EXTT4=
EXTT5=
EXTT6=
EXTT7=
EXTT8=
EXTT9=
PLAYORDER=
